# xmcd
#
# Track frame offsets:
#	150
#	21942
#	37652
#	61589
#	87716
#	107795
#	126722
#	149433
#	167304
#	185192
#	205031
#
# Disc length: 2948 seconds
#
# Revision: 1
# Processed by: cddbd v1.5PL3 Copyright (c) Steve Scherf et al.
# Submitted via: CDex 1.50Beta5
#
DISCID=990b820b
DTITLE=岡北有由 - “BASEMENT DIARY”
DYEAR=1900
DGENRE=Pop
TTITLE0=ほんとのもの
TTITLE1=あい
TTITLE2=そこには
TTITLE3=灰色ラブソング
TTITLE4=ハートタイムトリップ
TTITLE5=a tree on a hill
TTITLE6=咲イテ
TTITLE7=Sequela
TTITLE8=1+1の分離
TTITLE9=わたし
TTITLE10=いいよ
EXTD=
EXTT0=
EXTT1=
EXTT2=
EXTT3=
EXTT4=
EXTT5=
EXTT6=
EXTT7=
EXTT8=
EXTT9=
EXTT10=
PLAYORDER=
